<svg width="198" height="31" viewBox="0 0 198 31" fill="none" xmlns="http://www.w3.org/2000/svg">
<path d="M27.5384 1.24V11.4356L13.0413 21.08H27.5384V29.76H0V19.5989L14.5196 9.92H0V1.24H27.5384Z" fill="#1D1D27"/>
<path d="M41.5139 23.56H53.4773V29.76H32.7627V4.96H53.4773V11.16H41.5139V14.2428H52.7827V20.4428H41.5139V23.56Z" fill="#1D1D27"/>
<path d="M66.8426 19.4407L66.8426 29.76H58.6148V4.96H68.8939L74.8481 16.8136L74.8481 4.96H83.3403V29.76H73.0959L66.8426 19.4407Z" fill="#1D1D27"/>
<path d="M123.949 14.8628V29.76H116.448C114.249 30.5867 111.968 31 109.607 31C107.558 31 105.596 30.6269 103.721 29.8806C101.846 29.1343 100.196 28.1009 98.7722 26.7806C97.3484 25.4487 96.2082 23.8069 95.3516 21.855C94.5066 19.8917 94.0841 17.7733 94.0841 15.5C94.0841 13.3989 94.495 11.3954 95.3169 9.48944C96.1503 7.57204 97.2616 5.92444 98.6507 4.54667C100.051 3.15741 101.712 2.05519 103.634 1.24C105.567 0.413333 107.593 0 109.711 0C112.35 0 114.804 0.608518 117.073 1.82556C119.342 3.04259 121.194 4.69593 122.63 6.78556L120.581 8.19778L118.497 9.57556L116.431 10.9878L115.406 11.6594C114.781 10.7409 113.965 10.0176 112.958 9.48944C111.963 8.94981 110.88 8.68 109.711 8.68C107.813 8.68 106.192 9.34593 104.849 10.6778C103.507 12.0096 102.835 13.617 102.835 15.5C102.835 16.6596 103.026 17.6872 103.408 18.5828C103.79 19.4669 104.311 20.1787 104.971 20.7183C105.642 21.2465 106.383 21.6483 107.193 21.9239C108.015 22.188 108.895 22.32 109.833 22.32C111.754 22.32 113.543 21.9239 115.198 21.1317V14.8628H123.949Z" fill="#1D1D27"/>
<path d="M145.565 18.7722V4.96H154.316V18.7722L153.309 23.5256L150.6 27.4178L146.554 30.0183L141.64 31L136.727 30.0183L132.681 27.4178L129.972 23.5256L128.965 18.7722V4.96H137.716V18.7722C137.716 19.7481 138.098 20.5863 138.862 21.2867C139.638 21.9756 140.564 22.32 141.64 22.32C142.717 22.32 143.637 21.9756 144.401 21.2867C145.177 20.5863 145.565 19.7481 145.565 18.7722ZM141.64 31L146.554 30.0183L150.6 27.4178L153.309 23.5256L154.316 18.7722C154.316 20.4256 153.98 22.01 153.309 23.5256C152.637 25.0296 151.734 26.327 150.6 27.4178C149.466 28.5085 148.117 29.3754 146.554 30.0183C144.992 30.6728 143.354 31 141.64 31C139.927 31 138.289 30.6728 136.727 30.0183C135.164 29.3754 133.815 28.5085 132.681 27.4178C131.546 26.327 130.644 25.0296 129.972 23.5256C129.301 22.01 128.965 20.4256 128.965 18.7722L129.972 23.5256L132.681 27.4178L136.727 30.0183L141.64 31Z" fill="#1D1D27"/>
<path d="M171.226 3.72L178.692 5.87278L183.067 14.26V29.76H174.316V14.26C174.316 13.927 174.258 13.6457 174.143 13.4161C174.038 13.175 173.9 12.9913 173.726 12.865C173.552 12.7387 173.321 12.6411 173.031 12.5722C172.754 12.4919 172.482 12.4459 172.215 12.4344C171.949 12.4115 171.619 12.4 171.226 12.4C170.832 12.4 170.502 12.4115 170.236 12.4344C169.97 12.4459 169.692 12.4919 169.402 12.5722C169.125 12.6411 168.899 12.7387 168.725 12.865C168.552 12.9913 168.407 13.175 168.291 13.4161C168.187 13.6457 168.135 13.927 168.135 14.26V29.76H159.384V14.26L160.321 9.88556L162.856 6.54444L166.624 4.46056L171.226 3.72ZM183.067 14.26L178.692 5.87278L171.226 3.72L166.624 4.46056L162.856 6.54444L160.321 9.88556L159.384 14.26C159.384 12.6756 159.696 11.2174 160.321 9.88556C160.946 8.5537 161.791 7.44 162.856 6.54444C163.933 5.64889 165.189 4.95426 166.624 4.46056C168.071 3.96685 169.605 3.72 171.226 3.72C174.096 3.72 176.585 4.43759 178.692 5.87278C180.799 4.43759 183.287 3.72 186.158 3.72C187.779 3.72 189.307 3.96685 190.742 4.46056C192.189 4.95426 193.445 5.64889 194.51 6.54444C195.587 7.44 196.437 8.5537 197.062 9.88556C197.687 11.2174 198 12.6756 198 14.26V29.76H189.249V14.26C189.249 13.927 189.191 13.6457 189.075 13.4161C188.971 13.175 188.832 12.9913 188.658 12.865C188.485 12.7387 188.253 12.6411 187.964 12.5722C187.686 12.4919 187.414 12.4459 187.148 12.4344C186.882 12.4115 186.552 12.4 186.158 12.4C185.765 12.4 185.435 12.4115 185.168 12.4344C184.902 12.4459 184.624 12.4919 184.335 12.5722C184.057 12.6411 183.831 12.7387 183.658 12.865C183.484 12.9913 183.339 13.175 183.224 13.4161C183.12 13.6457 183.067 13.927 183.067 14.26Z" fill="#1D1D27"/>
</svg>
